STARTFONT 2.1
FONT -Bitstream-Terminal-Bold-R-Double Wide--25-180-100-100-C-300-ISO8859-1
SIZE 18 100 100
FONTBOUNDINGBOX 30 25 0 -5

STARTPROPERTIES 26
CHARSET_REGISTRY "ISO8859"
CHARSET_ENCODING "1"
CAP_HEIGHT 15
X_HEIGHT 12
AVERAGE_WIDTH 300
FIGURE_WIDTH 30
SPACING "C"
FONTNAME_REGISTRY ""
FAMILY_NAME "Terminal"
FOUNDRY "Bitstream"
WEIGHT_NAME "Bold"
SETWIDTH_NAME "Double Wide"
SLANT "R"
ADD_STYLE_NAME ""
PIXEL_SIZE 25
POINT_SIZE 180
RESOLUTION_X 100
RESOLUTION_Y 100
CHARSET_COLLECTIONS "ASCII ISO8859-1"
FULL_NAME "Terminal Bold Double Wide"
COPYRIGHT "Copyright (c) 1988 Bitstream, Inc., Copyright 1991 Digital Equipment Corporation.  All Rights Reserved."
WEIGHT 10
QUAD_WIDTH 30
DEFAULT_CHAR 159
FONT_DESCENT 5
FONT_ASCENT 20
ENDPROPERTIES

CHARS 194

STARTCHAR space
ENCODING 32
SWIDTH 1131 0
DWIDTH 30 0
BBX 1 1 0 0
BITMAP
00
ENDCHAR

STARTCHAR exclam
ENCODING 33
SWIDTH 1131 0
DWIDTH 30 0
BBX 14 15 8 0
BITMAP
1FE0
1FE0
1FE0
1FE0
1FE0
1FE0
1FE0
1FE0
1FE0
0000
0000
1FE0
FFFC
FFFC
1FE0
ENDCHAR

STARTCHAR quotedbl
ENCODING 34
SWIDTH 1131 0
DWIDTH 30 0
BBX 16 8 7 10
BITMAP
F81F
F81F
F81F
F81F
F81F
F81F
F81F
F81F
ENDCHAR

STARTCHAR numbersign
ENCODING 35
SWIDTH 1131 0
DWIDTH 30 0
BBX 28 19 1 -4
BITMAP
0FF0FF00
0FF0FF00
0FF0FF00
0FF0FF00
0FF0FF00
FFFFFFF0
FFFFFFF0
FFFFFFF0
0FF0FF00
0FF0FF00
0FF0FF00
FFFFFFF0
FFFFFFF0
FFFFFFF0
0FF0FF00
0FF0FF00
0FF0FF00
0FF0FF00
0FF0FF00
ENDCHAR

STARTCHAR dollar
ENCODING 36
SWIDTH 1131 0
DWIDTH 30 0
BBX 26 22 2 -4
BITMAP
000F8000
000F8000
000F8000
0FFF87C0
3FFFFFC0
3FFFFFC0
FF807FC0
FF800FC0
3FFC0000
3FFF8000
07FFFC00
003FFF00
FC007FC0
FC007FC0
FF807FC0
FFFFFFC0
FFFFFF00
FC7FFC00
007E0000
007E0000
007E0000
007E0000
ENDCHAR

STARTCHAR percent
ENCODING 37
SWIDTH 1131 0
DWIDTH 30 0
BBX 28 17 1 -1
BITMAP
7FFE0000
FFFF0000
F81F0000
F81F0000
F81F0180
FFFF0780
7FFE3E00
0001E000
001F8000
00780000
07C1FFE0
1E0FFFF0
180F81F0
000F81F0
000F81F0
000FFFF0
0007FFE0
ENDCHAR

STARTCHAR ampersand
ENCODING 38
SWIDTH 1131 0
DWIDTH 30 0
BBX 26 15 2 0
BITMAP
00FF3E00
07FFFE00
0FFFFE00
0FE07E00
0FF00000
07FC0FC0
03FE0FC0
0FFF0FC0
3F3FBE00
FF0FFE00
FF03FC00
FF81FE00
3FFFFFC0
3FFFFFC0
0FFF8FC0
ENDCHAR

STARTCHAR quoteright
ENCODING 39
SWIDTH 1131 0
DWIDTH 30 0
BBX 16 7 6 11
BITMAP
01FF
03FC
07F8
0FE0
3FC0
7E00
FC00
ENDCHAR

STARTCHAR parenleft
ENCODING 40
SWIDTH 1131 0
DWIDTH 30 0
BBX 16 22 7 -5
BITMAP
001F
007F
03F8
07E0
0FE0
1FC0
7FC0
7F80
FF80
FF80
FF80
FF80
FF80
FF80
FF80
7FC0
7FC0
1FE0
0FE0
07F8
01FF
001F
ENDCHAR

STARTCHAR parenright
ENCODING 41
SWIDTH 1131 0
DWIDTH 30 0
BBX 16 22 7 -5
BITMAP
F800
FF80
1FE0
07F0
07F8
03FE
03FE
01FF
01FF
01FF
01FF
01FF
01FF
01FF
01FE
03FE
03F8
07F0
07E0
1FC0
FE00
F800
ENDCHAR

STARTCHAR asterisk
ENCODING 42
SWIDTH 1131 0
DWIDTH 30 0
BBX 26 14 2 0
BITMAP
003F0000
183F0600
3C3F0F00
FF3F3FC0
3FFFFF00
1FFFFE00
0FFFFC00
07FFF800
07FFF800
0FF3FC00
1FE1FE00
0FC0FC00
07807800
03003000
ENDCHAR

STARTCHAR plus
ENCODING 43
SWIDTH 1131 0
DWIDTH 30 0
BBX 26 13 2 0
BITMAP
007F8000
007F8000
007F8000
007F8000
007F8000
FFFFFFC0
FFFFFFC0
FFFFFFC0
007F8000
007F8000
007F8000
007F8000
007F8000
ENDCHAR

STARTCHAR comma
ENCODING 44
SWIDTH 1131 0
DWIDTH 30 0
BBX 15 8 7 -4
BITMAP
0FFE
0FFE
0FF8
1FF0
1FE0
7FC0
7F80
FE00
ENDCHAR

STARTCHAR minus
ENCODING 45
SWIDTH 1131 0
DWIDTH 30 0
BBX 26 3 2 5
BITMAP
FFFFFFC0
FFFFFFC0
FFFFFFC0
ENDCHAR

STARTCHAR period
ENCODING 46
SWIDTH 1131 0
DWIDTH 30 0
BBX 10 5 10 0
BITMAP
3F00
FFC0
FFC0
FFC0
3F00
ENDCHAR

STARTCHAR slash
ENCODING 47
SWIDTH 1131 0
DWIDTH 30 0
BBX 29 20 1 -3
BITMAP
000001F8
000003F0
000007E0
00001F80
00003F00
00007E00
0000FC00
0001F800
0007E000
000FC000
001F8000
003F0000
007E0000
01F80000
03F00000
07E00000
0FC00000
1F800000
7E000000
FC000000
ENDCHAR

STARTCHAR zero
ENCODING 48
SWIDTH 1131 0
DWIDTH 30 0
BBX 26 15 2 0
BITMAP
03FFF000
0FFFFC00
3FFFFF00
3FC0FF00
FF807FC0
FF807FC0
FF807FC0
FF807FC0
FF807FC0
FF807FC0
FF807FC0
3FC0FF00
1FFFFE00
0FFFFC00
00FFC000
ENDCHAR

STARTCHAR one
ENCODING 49
SWIDTH 1131 0
DWIDTH 30 0
BBX 23 15 5 0
BITMAP
03FE00
3FFE00
FFFE00
F9FE00
01FE00
01FE00
01FE00
01FE00
01FE00
01FE00
01FE00
01FE00
FFFFFE
FFFFFE
FFFFFE
ENDCHAR

STARTCHAR two
ENCODING 50
SWIDTH 1131 0
DWIDTH 30 0
BBX 26 15 2 0
BITMAP
07FFFC00
FFFFFF00
FFFFFF00
FC007FC0
FC007FC0
0000FF00
0001FF00
000FFC00
003FF000
00FF8000
07FE0FC0
1FE00FC0
FFFFFFC0
FFFFFFC0
FFFFFFC0
ENDCHAR

STARTCHAR three
ENCODING 51
SWIDTH 1131 0
DWIDTH 30 0
BBX 26 15 2 0
BITMAP
0FFFFC00
FFFFFF00
FFFFFFC0
FC007FC0
FC007F00
00007F00
007FFC00
007FFF00
007FFFC0
00007FC0
FC007FC0
FC007FC0
FFFFFFC0
FFFFFF00
0FFFFC00
ENDCHAR

STARTCHAR four
ENCODING 52
SWIDTH 1131 0
DWIDTH 30 0
BBX 27 15 1 0
BITMAP
003FFE00
007FFE00
01FFFE00
03F1FE00
07E1FE00
0FC1FE00
1F81FE00
7E01FE00
FFFFFFE0
FFFFFFE0
FFFFFFE0
0001FE00
007FFFE0
007FFFE0
007FFFE0
ENDCHAR

STARTCHAR five
ENCODING 53
SWIDTH 1131 0
DWIDTH 30 0
BBX 26 15 2 0
BITMAP
FFFFFFC0
FFFFFFC0
FFFFFFC0
FF000000
FF000000
FFFFFC00
FFFFFF00
FFFFFFC0
F0007FC0
00007FC0
00007FC0
FC007FC0
FFFFFFC0
FFFFFF00
0FFFFC00
ENDCHAR

STARTCHAR six
ENCODING 54
SWIDTH 1131 0
DWIDTH 30 0
BBX 26 15 2 0
BITMAP
00FFFF00
0FFFFF00
1FFFFF00
3FC00000
3F800000
FF8FFC00
FFBFFF00
FFFFFFC0
FFC07FC0
FF803FC0
FF803FC0
3FC07FC0
3FFFFFC0
1FFFFF00
03FFFC00
ENDCHAR

STARTCHAR seven
ENCODING 55
SWIDTH 1131 0
DWIDTH 30 0
BBX 26 15 2 0
BITMAP
FFFFFFC0
FFFFFFC0
FFFFFFC0
FF007FC0
FF00FFC0
0001FF00
0003FE00
000FFC00
001FF800
003FF000
007FC000
00FF8000
03FF0000
07FE0000
07FE0000
ENDCHAR

STARTCHAR eight
ENCODING 56
SWIDTH 1131 0
DWIDTH 30 0
BBX 26 15 2 0
BITMAP
0FFFFC00
1FFFFE00
3FFFFF00
3F807F00
3F807F00
1F807E00
0FFFFC00
3FFFFF00
FF807FC0
FF807FC0
FF807FC0
FF807FC0
3FFFFF00
3FFFFF00
0FFFFC00
ENDCHAR

STARTCHAR nine
ENCODING 57
SWIDTH 1131 0
DWIDTH 30 0
BBX 26 15 2 0
BITMAP
0FFFFC00
3FFFFF00
FFFFFF00
FF80FFC0
FF007FC0
FF007FC0
FF80FFC0
3FFFFFC0
1FFFFFC0
07FE7FC0
00007F00
0000FF00
3FFFFE00
3FFFFC00
3FFFC000
ENDCHAR

STARTCHAR colon
ENCODING 58
SWIDTH 1131 0
DWIDTH 30 0
BBX 10 12 10 0
BITMAP
3F00
FFC0
FFC0
FFC0
3F00
0000
0000
3F00
FFC0
FFC0
FFC0
3F00
ENDCHAR

STARTCHAR semicolon
ENCODING 59
SWIDTH 1131 0
DWIDTH 30 0
BBX 16 16 7 -4
BITMAP
03F8
0FFF
0FFF
0FFF
03F8
0000
0000
0000
0FFE
0FFE
0FF8
1FF0
1FE0
7FC0
7F80
FE00
ENDCHAR

STARTCHAR less
ENCODING 60
SWIDTH 1131 0
DWIDTH 30 0
BBX 26 13 2 1
BITMAP
00000FC0
00007FC0
0003FFC0
007FFC00
0FFFC000
FFFE0000
FFE00000
FFFE0000
0FFFC000
007FFC00
0003FFC0
00007FC0
00000FC0
ENDCHAR

STARTCHAR equal
ENCODING 61
SWIDTH 1131 0
DWIDTH 30 0
BBX 26 8 2 3
BITMAP
FFFFFFC0
FFFFFFC0
FFFFFFC0
00000000
00000000
FFFFFFC0
FFFFFFC0
FFFFFFC0
ENDCHAR

STARTCHAR greater
ENCODING 62
SWIDTH 1131 0
DWIDTH 30 0
BBX 26 13 2 1
BITMAP
FC000000
FF800000
FFF00000
0FFF8000
00FFFC00
001FFFC0
0001FFC0
001FFFC0
00FFFC00
0FFF8000
FFF00000
FF800000
FC000000
ENDCHAR

STARTCHAR question
ENCODING 63
SWIDTH 1131 0
DWIDTH 30 0
BBX 22 15 4 0
BITMAP
1FFFE0
7FFFF8
FF87FC
FF03FC
0003FC
00FFF0
03FFC0
03FC00
03FC00
000000
000000
03FC00
1FFF00
1FFF00
03FC00
ENDCHAR

STARTCHAR at
ENCODING 64
SWIDTH 1131 0
DWIDTH 30 0
BBX 28 20 1 -3
BITMAP
03FFFC00
07FFFE00
1FFFFF00
7F803F80
7E001F80
FE001F80
FC1FFF80
FC3FFF80
FC7FFF80
FC7E1F80
FC7E1F80
FC7FFF80
FC3FE7F0
FC1FE3F0
FE000000
FE000000
7FC00000
1FFFFF00
07FFFF00
03FFFF00
ENDCHAR

STARTCHAR A
ENCODING 65
SWIDTH 1131 0
DWIDTH 30 0
BBX 28 15 1 0
BITMAP
003FE000
007FF800
007FF800
01FFFC00
01F9FC00
03F1FC00
03F0FE00
07E0FE00
07FFFF00
0FFFFF00
0F807F80
1F803F80
FFE0FFF0
FFE0FFF0
FFE0FFF0
ENDCHAR

STARTCHAR B
ENCODING 66
SWIDTH 1131 0
DWIDTH 30 0
BBX 28 15 1 0
BITMAP
FFFFFE00
FFFFFF80
FFFFFF80
1FE07F80
1FE07F80
1FE07E00
1FFFFE00
1FFFFF80
1FE01FF0
1FE01FF0
1FE01FF0
1FE01FF0
FFFFFFE0
FFFFFFE0
FFFFFF00
ENDCHAR

STARTCHAR C
ENCODING 67
SWIDTH 1131 0
DWIDTH 30 0
BBX 28 15 1 0
BITMAP
01FFE1F0
0FFFFFF0
1FFFFFF0
7FC01FF0
FF8003F0
FF8003F0
FF800000
FF800000
FF800000
FF800000
FFC00000
7FE003F0
1FFFFFF0
0FFFFFF0
01FFFE00
ENDCHAR

STARTCHAR D
ENCODING 68
SWIDTH 1131 0
DWIDTH 30 0
BBX 28 15 1 0
BITMAP
FFFFFE00
FFFFFF80
FFFFFF80
1FE03FE0
1FE01FF0
1FE01FF0
1FE01FF0
1FE01FF0
1FE01FF0
1FE01FF0
1FE01FF0
1FE03FE0
FFFFFF80
FFFFFF80
FFFFFE00
ENDCHAR

STARTCHAR E
ENCODING 69
SWIDTH 1131 0
DWIDTH 30 0
BBX 26 15 2 0
BITMAP
FFFFFFC0
FFFFFFC0
FFFFFFC0
1FE007C0
1FE007C0
1FE3C000
1FFFC000
1FFFC000
1FE3C000
1FE007C0
1FE007C0
1FE007C0
FFFFFFC0
FFFFFFC0
FFFFFFC0
ENDCHAR

STARTCHAR F
ENCODING 70
SWIDTH 1131 0
DWIDTH 30 0
BBX 26 15 2 0
BITMAP
FFFFFFC0
FFFFFFC0
FFFFFFC0
1FE007C0
1FE007C0
1FE00000
1FE1F000
1FFFF000
1FFFF000
1FE1F000
1FE00000
1FE00000
FFFE0000
FFFE0000
FFFE0000
ENDCHAR

STARTCHAR G
ENCODING 71
SWIDTH 1131 0
DWIDTH 30 0
BBX 28 15 1 0
BITMAP
01FFE1F0
0FFFFFF0
1FFFFFF0
7FC01FF0
FF8003F0
FF800000
FF800000
FF81FFF0
FF81FFF0
FF801FF0
FF801FF0
7FC01FF0
1FFFFFF0
0FFFFFF0
01FFFF00
ENDCHAR

STARTCHAR H
ENCODING 72
SWIDTH 1131 0
DWIDTH 30 0
BBX 28 15 1 0
BITMAP
FFE07FF0
FFE07FF0
FFE07FF0
1FE07F80
1FE07F80
1FE07F80
1FFFFF80
1FFFFF80
1FE07F80
1FE07F80
1FE07F80
1FE07F80
FFE07FF0
FFE07FF0
FFE07FF0
ENDCHAR

STARTCHAR I
ENCODING 73
SWIDTH 1131 0
DWIDTH 30 0
BBX 20 15 5 0
BITMAP
FFFFF0
FFFFF0
FFFFF0
03FC00
03FC00
03FC00
03FC00
03FC00
03FC00
03FC00
03FC00
03FC00
FFFFF0
FFFFF0
FFFFF0
ENDCHAR

STARTCHAR J
ENCODING 74
SWIDTH 1131 0
DWIDTH 30 0
BBX 28 15 1 0
BITMAP
007FFFF0
007FFFF0
007FFFF0
0001FE00
0001FE00
0001FE00
0001FE00
0001FE00
FC01FE00
FC01FE00
FC01FE00
FE01FE00
FFFFFC00
FFFFFC00
1FFFE000
ENDCHAR

STARTCHAR K
ENCODING 75
SWIDTH 1131 0
DWIDTH 30 0
BBX 28 15 1 0
BITMAP
FFE07FE0
FFE07FE0
FFE07FE0
1FE0FC00
1FE1E000
1FE7C000
1FEF8000
1FFFC000
1FFFE000
1FE7F800
1FE1FC00
1FE0FE00
FFE07FF0
FFE07FF0
FFE07FF0
ENDCHAR

STARTCHAR L
ENCODING 76
SWIDTH 1131 0
DWIDTH 30 0
BBX 26 15 2 0
BITMAP
FFFF0000
FFFF0000
FFFF0000
0FF00000
0FF00000
0FF00000
0FF00000
0FF00000
0FF00FC0
0FF00FC0
0FF00FC0
0FF00FC0
FFFFFFC0
FFFFFFC0
FFFFFFC0
ENDCHAR

STARTCHAR M
ENCODING 77
SWIDTH 1131 0
DWIDTH 30 0
BBX 28 15 1 0
BITMAP
FF8007F0
FFC01FF0
FFC01FF0
1FE03F80
1FF07F80
1FF8FF80
1FFFFF80
1FBFDF80
1F9F9F80
1FCF3F80
1FCF3F80
1FC03F80
FFC03FF0
FFC03FF0
FFC03FF0
ENDCHAR

STARTCHAR N
ENCODING 78
SWIDTH 1131 0
DWIDTH 30 0
BBX 28 15 1 0
BITMAP
FFE07FF0
FFE07FF0
FFF07FF0
1FF87F80
1FFE7F80
1FFF7F80
1FEF7F80
1FE7FF80
1FE1FF80
1FE0FF80
1FE0FF80
1FE07F80
FFE07F80
FFE07F80
FFE07F80
ENDCHAR

STARTCHAR O
ENCODING 79
SWIDTH 1131 0
DWIDTH 30 0
BBX 28 15 1 0
BITMAP
01FFF800
0FFFFF00
1FF0FF80
7FC03FE0
7F801FE0
FF801FF0
FE0007F0
FE0007F0
FE0007F0
FF801FF0
7F801FE0
7FC03FE0
1FF0FF80
0FFFFF00
01FFF800
ENDCHAR

STARTCHAR P
ENCODING 80
SWIDTH 1131 0
DWIDTH 30 0
BBX 26 15 2 0
BITMAP
FFFFFE00
FFFFFF00
FFFFFFC0
0FF07FC0
0FF07FC0
0FF07FC0
0FF07FC0
0FFFFF00
0FFFFE00
0FF00000
0FF00000
0FF00000
FFFF0000
FFFF0000
FFFF0000
ENDCHAR

STARTCHAR Q
ENCODING 81
SWIDTH 1131 0
DWIDTH 30 0
BBX 28 20 1 -5
BITMAP
01FFF800
0FFFFF00
1FFFFF80
7FC03FE0
7F801FE0
FF801FF0
FF801FF0
FF801FF0
FF801FF0
FF801FF0
7F801FE0
7FC03FE0
1FFFFF80
0FFFFF00
01FFF800
00380000
003801F0
007FFFF0
03FFFFF0
03E1FF00
ENDCHAR

STARTCHAR R
ENCODING 82
SWIDTH 1131 0
DWIDTH 30 0
BBX 28 15 1 0
BITMAP
FFFFFE00
FFFFFF80
FFFFFF80
1FE07F80
1FE07F80
1FE07F80
1FFFFF00
1FFFF800
1FE7FC00
1FE1FE00
1FE0FE00
1FE0FF00
FFE07FF0
FFE07FF0
FFE03FF0
ENDCHAR

STARTCHAR S
ENCODING 83
SWIDTH 1131 0
DWIDTH 30 0
BBX 22 15 4 0
BITMAP
1FFCFC
7FFFFC
7FFFFC
FF01FC
FF00FC
7FF000
3FFF00
0FFFF0
003FFC
FC03FC
FC03FC
FE03FC
FFFFF8
FFFFF8
FCFFE0
ENDCHAR

STARTCHAR T
ENCODING 84
SWIDTH 1131 0
DWIDTH 30 0
BBX 28 15 1 0
BITMAP
FFFFFFF0
FFFFFFF0
FFFFFFF0
FC3FC3F0
FC3FC3F0
FC3FC3F0
FC3FC3F0
003FC000
003FC000
003FC000
003FC000
003FC000
03FFFC00
03FFFC00
03FFFC00
ENDCHAR

STARTCHAR U
ENCODING 85
SWIDTH 1131 0
DWIDTH 30 0
BBX 28 15 1 0
BITMAP
FFE07FF0
FFE07FF0
FFE07FF0
1FE07F80
1FE07F80
1FE07F80
1FE07F80
1FE07F80
1FE07F80
1FE07F80
1FE07F80
1FE07F80
0FFFFF00
0FFFFF00
03FFFC00
ENDCHAR

STARTCHAR V
ENCODING 86
SWIDTH 1131 0
DWIDTH 30 0
BBX 28 15 1 0
BITMAP
FFC01FF0
FFC01FF0
FFC01FF0
1FE03F80
1FE03F80
0FE07F00
0FF07E00
07F0FE00
07F8FC00
03F9FC00
03FFF800
01FFE000
01FFE000
007FC000
007FC000
ENDCHAR

STARTCHAR W
ENCODING 87
SWIDTH 1131 0
DWIDTH 30 0
BBX 28 15 1 0
BITMAP
FFE07FF0
FFE07FF0
FFE07FF0
1F800780
1F8F0780
1F8F0780
1F9F9F00
0F9F9F00
0FBFDF00
0FF1FE00
0FF1FE00
0FF1FE00
07E0FC00
07E0FC00
07E0FC00
ENDCHAR

STARTCHAR X
ENCODING 88
SWIDTH 1131 0
DWIDTH 30 0
BBX 28 15 1 0
BITMAP
FFC01FE0
FFE03FE0
FFF07FE0
0FF8FE00
07FFFC00
01FFF800
007FE000
003FE000
007FF800
01FFFC00
03F9FE00
07F0FF00
FFE07FF0
FFC07FF0
FFC03FF0
ENDCHAR

STARTCHAR Y
ENCODING 89
SWIDTH 1131 0
DWIDTH 30 0
BBX 28 15 1 0
BITMAP
FFE03FF0
FFE03FF0
FFF07FF0
0FF07F00
07F8FE00
03FFFC00
01FFF800
007FE000
003FC000
003FC000
003FC000
003FC000
07FFFE00
07FFFE00
07FFFE00
ENDCHAR

STARTCHAR Z
ENCODING 90
SWIDTH 1131 0
DWIDTH 30 0
BBX 22 15 4 0
BITMAP
FFFFF8
FFFFF8
FFFFF0
FC3FE0
FC7FC0
00FF00
01FE00
03FC00
0FF800
1FF0FC
3FC0FC
7F80FC
FFFFFC
FFFFFC
FFFFFC
ENDCHAR

STARTCHAR bracketleft
ENCODING 91
SWIDTH 1131 0
DWIDTH 30 0
BBX 15 21 8 -3
BITMAP
FFFE
FFFE
FFFE
FF80
FF80
FF80
FF80
FF80
FF80
FF80
FF80
FF80
FF80
FF80
FF80
FF80
FF80
FF80
FFFE
FFFE
FFFE
ENDCHAR

STARTCHAR backslash
ENCODING 92
SWIDTH 1131 0
DWIDTH 30 0
BBX 29 20 1 -3
BITMAP
FC000000
7E000000
1F800000
0FC00000
07E00000
03F00000
01F80000
007E0000
003F0000
001F8000
000FC000
0007E000
0001F800
0000FC00
00007E00
00003F00
00001F80
000007E0
000003F0
000001F8
ENDCHAR

STARTCHAR bracketright
ENCODING 93
SWIDTH 1131 0
DWIDTH 30 0
BBX 15 21 8 -3
BITMAP
FFFE
FFFE
FFFE
03FE
03FE
03FE
03FE
03FE
03FE
03FE
03FE
03FE
03FE
03FE
03FE
03FE
03FE
03FE
FFFE
FFFE
FFFE
ENDCHAR

STARTCHAR asciicircum
ENCODING 94
SWIDTH 1131 0
DWIDTH 30 0
BBX 26 7 2 5
BITMAP
001E0000
003F0000
00FFC000
03F3F000
0FE1FC00
3F807F00
FF003FC0
ENDCHAR

STARTCHAR underscore
ENCODING 95
SWIDTH 1131 0
DWIDTH 30 0
BBX 30 3 0 0
BITMAP
FFFFFFFC
FFFFFFFC
FFFFFFFC
ENDCHAR

STARTCHAR quoteleft
ENCODING 96
SWIDTH 1131 0
DWIDTH 30 0
BBX 12 7 10 11
BITMAP
F000
FC00
FE00
7F00
1F80
0FC0
01F0
ENDCHAR

STARTCHAR a
ENCODING 97
SWIDTH 1131 0
DWIDTH 30 0
BBX 28 12 1 0
BITMAP
0FFFFE00
0FFFFF00
00007F80
00007F80
0FFFFF80
7FFFFF80
FF807F80
FF807F80
FF80FF80
FFFFFF80
7FFFFFF0
1FFE7FF0
ENDCHAR

STARTCHAR b
ENCODING 98
SWIDTH 1131 0
DWIDTH 30 0
BBX 28 17 1 0
BITMAP
FFE00000
FFE00000
1FE00000
1FE00000
1FE00000
1FE7FF00
1FFFFFE0
1FF87FE0
1FF03FF0
1FE01FF0
1FE01FF0
1FE01FF0
1FE01FF0
1FF07FE0
1FFFFFE0
FFFFFF80
FFE7FE00
ENDCHAR

STARTCHAR c
ENCODING 99
SWIDTH 1131 0
DWIDTH 30 0
BBX 27 12 2 0
BITMAP
07FFC3E0
1FFFFFE0
3FE07FE0
3FC03FE0
FF8007E0
FF800000
FF800000
FFC00000
FFC00000
3FF00FC0
1FFFFFC0
07FFFE00
ENDCHAR

STARTCHAR d
ENCODING 100
SWIDTH 1131 0
DWIDTH 30 0
BBX 28 17 1 0
BITMAP
001FFF80
001FFF80
00007F80
00007F80
00007F80
07FE7F80
1FFFFF80
7FE0FF80
7FC0FF80
FF807F80
FF807F80
FF807F80
FF807F80
7FC0FF80
7FF1FF80
1FFFFFF0
07FE7FF0
ENDCHAR

STARTCHAR e
ENCODING 101
SWIDTH 1131 0
DWIDTH 30 0
BBX 27 12 1 0
BITMAP
07FFFE00
1FFFFF80
7FE03FE0
7FC01FE0
FFC01FE0
FFFFFFE0
FFFFFF80
FFC00000
7FC00000
7FE01FE0
1FFFFFE0
07FFFF00
ENDCHAR

STARTCHAR f
ENCODING 102
SWIDTH 1131 0
DWIDTH 30 0
BBX 26 16 2 0
BITMAP
007FFFC0
00FFFFC0
03FE0000
03FE0000
3FFFFE00
3FFFFE00
03FE0000
03FE0000
03FE0000
03FE0000
03FE0000
03FE0000
03FE0000
03FE0000
FFFFFE00
FFFFFE00
ENDCHAR

STARTCHAR g
ENCODING 103
SWIDTH 1131 0
DWIDTH 30 0
BBX 28 17 1 -5
BITMAP
03FE7FF0
1FFFFFF0
7FC0FF80
FFC0FF80
FF807F80
FF807F80
FF807F80
FF807F80
FFC0FF80
7FFFFF80
1FFFFF80
07FE7F80
00007F80
00007F80
0000FF00
1FFFFE00
1FFFF800
ENDCHAR

STARTCHAR h
ENCODING 104
SWIDTH 1131 0
DWIDTH 30 0
BBX 28 17 1 0
BITMAP
FFE00000
FFE00000
1FE00000
1FE00000
1FE00000
1FE7FE00
1FFFFF00
1FF87F80
1FE07F80
1FE07F80
1FE07F80
1FE07F80
1FE07F80
1FE07F80
1FE07F80
FFE07FF0
FFE07FF0
ENDCHAR

STARTCHAR i
ENCODING 105
SWIDTH 1131 0
DWIDTH 30 0
BBX 20 18 5 0
BITMAP
03FC00
03FC00
03FC00
03FC00
000000
000000
7FFC00
7FFC00
03FC00
03FC00
03FC00
03FC00
03FC00
03FC00
03FC00
03FC00
FFFFF0
FFFFF0
ENDCHAR

STARTCHAR j
ENCODING 106
SWIDTH 1131 0
DWIDTH 30 0
BBX 20 23 2 -5
BITMAP
001FF0
001FF0
001FF0
001FF0
000000
000000
07FFF0
07FFF0
001FF0
001FF0
001FF0
001FF0
001FF0
001FF0
001FF0
001FF0
001FF0
001FF0
001FF0
001FF0
003FC0
FFFF80
FFFE00
ENDCHAR

STARTCHAR k
ENCODING 107
SWIDTH 1131 0
DWIDTH 30 0
BBX 28 17 1 0
BITMAP
FFE00000
FFE00000
1FE00000
1FE00000
1FE00000
1FE07FE0
1FE0FFE0
1FE1F800
1FE7E000
1FEFC000
1FFFC000
1FFFE000
1FE7F800
1FE1FE00
1FE0FF00
FFE07FF0
FFE03FF0
ENDCHAR

STARTCHAR l
ENCODING 108
SWIDTH 1131 0
DWIDTH 30 0
BBX 20 17 5 0
BITMAP
7FFC00
7FFC00
03FC00
03FC00
03FC00
03FC00
03FC00
03FC00
03FC00
03FC00
03FC00
03FC00
03FC00
03FC00
03FC00
FFFFF0
FFFFF0
ENDCHAR

STARTCHAR m
ENCODING 109
SWIDTH 1131 0
DWIDTH 30 0
BBX 30 12 0 0
BITMAP
FE3F9FF0
7FFFFFF8
7FCFE3F8
7FCFE3F8
7FCFE3F8
7FCFE3F8
7FCFE3F8
7FCFE3F8
7FCFE3F8
7FCFE3F8
7FCFE3F8
FFCFE3FC
ENDCHAR

STARTCHAR n
ENCODING 110
SWIDTH 1131 0
DWIDTH 30 0
BBX 28 12 1 0
BITMAP
FFE7FE00
FFFFFF00
1FF87F80
1FE07F80
1FE07F80
1FE07F80
1FE07F80
1FE07F80
1FE07F80
1FE07F80
FFE07FF0
FFE07FF0
ENDCHAR

STARTCHAR o
ENCODING 111
SWIDTH 1131 0
DWIDTH 30 0
BBX 28 12 1 0
BITMAP
03FFFE00
1FFFFF80
7FC03FE0
FF801FF0
FF801FF0
FF801FF0
FF801FF0
FF801FF0
FF801FF0
7FC03FE0
1FFFFF80
03FFFC00
ENDCHAR

STARTCHAR p
ENCODING 112
SWIDTH 1131 0
DWIDTH 30 0
BBX 28 17 1 -5
BITMAP
FFE7FE00
FFFFFF80
1FF83FE0
1FE03FE0
1FE01FF0
1FE01FF0
1FE01FF0
1FE01FF0
1FE03FE0
1FF87FE0
1FFFFF80
1FE7FE00
1FE00000
1FE00000
1FE00000
FFFF0000
FFFF0000
ENDCHAR

STARTCHAR q
ENCODING 113
SWIDTH 1131 0
DWIDTH 30 0
BBX 28 17 1 -5
BITMAP
07FE7FF0
1FFFFFF0
7FC0FF80
FF807F80
FF807F80
FF807F80
FF807F80
FF807F80
FFC0FF80
7FFFFF80
1FFFFF80
07FE7F80
00007F80
00007F80
00007F80
001FFFF0
001FFFF0
ENDCHAR

STARTCHAR r
ENCODING 114
SWIDTH 1131 0
DWIDTH 30 0
BBX 28 12 1 0
BITMAP
FFF1FF80
FFFFFFF0
03FE07F0
03FE07F0
03FE0000
03FE0000
03FE0000
03FE0000
03FE0000
03FE0000
FFFFFC00
FFFFFC00
ENDCHAR

STARTCHAR s
ENCODING 115
SWIDTH 1131 0
DWIDTH 30 0
BBX 22 12 4 0
BITMAP
1FFE3C
7FFFFC
FF80FC
FF80FC
7FFE00
3FFFF0
03FFF8
0003FC
FE03FC
FFFFFC
FFFFF8
E3FFE0
ENDCHAR

STARTCHAR t
ENCODING 116
SWIDTH 1131 0
DWIDTH 30 0
BBX 27 17 1 0
BITMAP
03FE0000
03FE0000
03FE0000
03FE0000
03FE0000
FFFFFF80
FFFFFF80
03FE0000
03FE0000
03FE0000
03FE0000
03FE0000
03FE0000
03FE0000
03FF03E0
03FFFFE0
007FFE00
ENDCHAR

STARTCHAR u
ENCODING 117
SWIDTH 1131 0
DWIDTH 30 0
BBX 28 12 1 0
BITMAP
FFE1FF80
FFE1FF80
1FE07F80
1FE07F80
1FE07F80
1FE07F80
1FE07F80
1FE07F80
1FE0FF80
1FF1FF80
0FFFFFF0
03FF7FF0
ENDCHAR

STARTCHAR v
ENCODING 118
SWIDTH 1131 0
DWIDTH 30 0
BBX 28 12 1 0
BITMAP
FFC01FF0
FFC01FF0
1FE03F80
0FE07F00
0FF07E00
07F0FE00
03F9FC00
03F9F800
01FFE000
01FFE000
007FC000
007F8000
ENDCHAR

STARTCHAR w
ENCODING 119
SWIDTH 1131 0
DWIDTH 30 0
BBX 28 12 1 0
BITMAP
FF801FF0
FF861FF0
1F8F1F80
1F8F1F80
1F9F9F80
1FBFDF80
0FFFFF00
0FF9FF00
0FF0FF00
07F0FE00
07E07E00
07E07E00
ENDCHAR

STARTCHAR x
ENCODING 120
SWIDTH 1131 0
DWIDTH 30 0
BBX 28 12 1 0
BITMAP
7FC03FE0
7FE07FE0
0FF0FE00
03F9FC00
01FFF800
007FE000
007FF800
01FFFC00
03F9FE00
07F0FF00
FFE07FF0
FFC03FF0
ENDCHAR

STARTCHAR y
ENCODING 121
SWIDTH 1131 0
DWIDTH 30 0
BBX 29 17 0 -5
BITMAP
FFF03FF8
FFF03FF8
0FF01F80
07F83F00
03FC3E00
01FF7E00
00FFFC00
003FF000
001FF000
000FE000
000FC000
000FC000
001FC000
001F8000
003F8000
03FFF000
03FFF000
ENDCHAR

STARTCHAR z
ENCODING 122
SWIDTH 1131 0
DWIDTH 30 0
BBX 26 12 2 0
BITMAP
FFFFFF00
FFFFFF00
FC01FE00
FC03FC00
001FF000
003F8000
00FF0000
03FC0FC0
0FF00FC0
3FFFFFC0
FFFFFFC0
FFFFFFC0
ENDCHAR

STARTCHAR braceleft
ENCODING 123
SWIDTH 1131 0
DWIDTH 30 0
BBX 18 22 6 -4
BITMAP
01FFC0
03FFC0
07FFC0
07F800
07F800
07F800
07F800
07F800
07F800
0FF800
3FC000
FC0000
3FC000
0FF800
07F800
07F800
07F800
07F800
07F800
07FFC0
03FFC0
01FFC0
ENDCHAR

STARTCHAR bar
ENCODING 124
SWIDTH 1131 0
DWIDTH 30 0
BBX 8 22 11 -4
BITMAP
FF
FF
FF
FF
FF
FF
FF
FF
FF
FF
FF
FF
FF
FF
FF
FF
FF
FF
FF
FF
FF
FF
ENDCHAR

STARTCHAR braceright
ENCODING 125
SWIDTH 1131 0
DWIDTH 30 0
BBX 18 22 6 -4
BITMAP
FFE000
FFF000
FFF800
07F800
07F800
07F800
07F800
07F800
07FC00
00FF00
000FC0
00FF00
07FC00
07F800
07F800
07F800
07F800
07F800
07F800
FFF800
FFF000
FFE000
ENDCHAR

STARTCHAR asciitilde
ENCODING 126
SWIDTH 1131 0
DWIDTH 30 0
BBX 28 5 1 6
BITMAP
0FF801F0
7FFF83F0
FFFFFFF0
FC1FFFE0
F801FF00
ENDCHAR

STARTCHAR OE
ENCODING 128
SWIDTH 1131 0
DWIDTH 30 0
BBX 28 15 1 0
BITMAP
03FFFFF0
1FFFFFF0
1FFFFFF0
7F8FE0F0
FF8FE000
FF8FE380
FF8FFF80
FF8FFF80
FF8FE380
FF8FE000
FF8FE000
7F8FE0F0
1FFFFFF0
1FFFFFF0
03FFFFF0
ENDCHAR

STARTCHAR oe
ENCODING 129
SWIDTH 1131 0
DWIDTH 30 0
BBX 29 12 1 0
BITMAP
03FE7F80
1FFFFFF0
7F8FE1F8
7F8FE1F8
FF8FFFF8
FF8FFFF0
FF8FE000
FF8FE000
7F8FF8F0
1FFFFFF0
1FFFFFF0
03FE7F80
ENDCHAR

STARTCHAR Ydieresis
ENCODING 130
SWIDTH 1131 0
DWIDTH 30 0
BBX 1 1 0 0
BITMAP
00
ENDCHAR

STARTCHAR Error
ENCODING 159
SWIDTH 1131 0
DWIDTH 30 0
BBX 30 25 0 -5
BITMAP
07FFFFC0
3FFFFFF8
7FFFFFFC
FFF03FFC
FFE01FFC
FFC00FFC
FFC00FFC
FFC00FFC
FFE00000
FFF00000
FFFF0000
7FFFC000
3FFFE000
07FFF000
00FFF000
001FF000
001FF000
001FF000
00000000
00000000
000FE000
001FF000
001FF000
001FF000
000FE000
ENDCHAR

STARTCHAR exclamdown
ENCODING 161
SWIDTH 1131 0
DWIDTH 30 0
BBX 14 15 8 -3
BITMAP
1FE0
FFFC
FFFC
1FE0
0000
1FE0
1FE0
1FE0
1FE0
1FE0
1FE0
1FE0
1FE0
1FE0
1FE0
ENDCHAR

STARTCHAR cent
ENCODING 162
SWIDTH 1131 0
DWIDTH 30 0
BBX 26 17 2 -2
BITMAP
001F8000
001F8000
001F8000
07FFFFC0
1FFFFFC0
3FE00FC0
FFC00FC0
FF800000
FF800000
FF800000
FFC007C0
3FE00FC0
1FFFFFC0
07FFFC00
001F8000
001F8000
001F8000
ENDCHAR

STARTCHAR sterling
ENCODING 163
SWIDTH 1131 0
DWIDTH 30 0
BBX 28 15 1 0
BITMAP
007FFE00
03FFFF80
03FFFF80
07FE1F80
07FE0000
03FE0000
FFFFFE00
FFFFFE00
01FF0000
007F0000
007F0000
01FE01F0
1FFFFFF0
1FFFFFF0
1FC7FF80
ENDCHAR

STARTCHAR currency
ENCODING 164
SWIDTH 1131 0
DWIDTH 30 0
BBX 26 13 2 1
BITMAP
F80003C0
F80003C0
FF7FCFC0
1FFFFE00
3FC0FF00
3F807F00
3F807F00
3F807F00
1FC0FE00
1FFFFE00
FF7FCFC0
F80003C0
F80003C0
ENDCHAR

STARTCHAR yen
ENCODING 165
SWIDTH 1131 0
DWIDTH 30 0
BBX 30 15 0 0
BITMAP
FFFC7FFC
FFFC7FFC
FFFC7FFC
0FE01FC0
07F03F80
FFFC7FFC
FFFC7FFC
00FC7E00
FFFFFFFC
FFFFFFFC
001FE000
001FE000
03FFFF80
03FFFF80
03FFFF80
ENDCHAR

STARTCHAR brokenbar
ENCODING 166
SWIDTH 1131 0
DWIDTH 30 0
BBX 8 23 11 -5
BITMAP
FF
FF
FF
FF
FF
FF
FF
FF
FF
FF
00
00
00
00
FF
FF
FF
FF
FF
FF
FF
FF
FF
ENDCHAR

STARTCHAR section
ENCODING 167
SWIDTH 1131 0
DWIDTH 30 0
BBX 28 18 1 -3
BITMAP
03FFFF80
0FFFFF80
1FFFFF80
7FE01F80
FFFE1F80
FC7F8000
FC1FE000
7F87FC00
1FE0FF80
07F83FE0
03FF07F0
003FC1F0
000FE3F0
7F81FFF0
7F807F80
7FFFFF80
7FFFFE00
7FFFFC00
ENDCHAR

STARTCHAR dieresis
ENCODING 168
SWIDTH 1131 0
DWIDTH 30 0
BBX 25 4 4 15
BITMAP
7F00FF00
FF81FF80
FF81FF80
7F00FF00
ENDCHAR

STARTCHAR copyright
ENCODING 169
SWIDTH 1131 0
DWIDTH 30 0
BBX 30 17 0 0
BITMAP
01FFFF00
01FFFF00
3FFFFFF0
3F0001F0
3F0001F0
FC1FF07C
FCFFF07C
FCFC007C
FCFC007C
FCFC007C
FCFFF07C
FC1FF07C
FC00007C
3F0001F0
3FFFFFF0
3FFFFFF0
01FFFF00
ENDCHAR

STARTCHAR ordfeminine
ENCODING 170
SWIDTH 1131 0
DWIDTH 30 0
BBX 20 15 5 0
BITMAP
1FFFC0
7FFFE0
000FE0
000FE0
3FFFE0
7FFFE0
7E0FE0
7C0FE0
7FFFE0
7FEFF0
3FE7F0
000000
FFFFF0
FFFFF0
FFFFF0
ENDCHAR

STARTCHAR guillemotleft
ENCODING 171
SWIDTH 1131 0
DWIDTH 30 0
BBX 19 14 5 0
BITMAP
030060
0701E0
1F03E0
3F07E0
7E0FC0
FC1F80
F81E00
F81E00
FC1F80
7E0FC0
3F07E0
1F03E0
0701E0
030060
ENDCHAR

STARTCHAR logicalnot
ENCODING 172
SWIDTH 1131 0
DWIDTH 30 0
BBX 26 8 2 3
BITMAP
FFFFFFC0
FFFFFFC0
FFFFFFC0
00007FC0
00007FC0
00007FC0
00007FC0
00007FC0
ENDCHAR

STARTCHAR hyphen
ENCODING 173
SWIDTH 1131 0
DWIDTH 30 0
BBX 26 3 2 4
BITMAP
FFFFFFC0
FFFFFFC0
FFFFFFC0
ENDCHAR

STARTCHAR registered
ENCODING 174
SWIDTH 1131 0
DWIDTH 30 0
BBX 30 17 0 0
BITMAP
01FFFF00
01FFFF00
3FFFFFF0
3F0001F0
3F0001F0
FCFFF07C
FCFFFC7C
FCF87E7C
FCFFFC7C
FCFFF07C
FCFFFE7C
FCF87E7C
FC00007C
3F0001F0
3FFFFFF0
3FFFFFF0
01FFFF00
ENDCHAR

STARTCHAR macron
ENCODING 175
SWIDTH 1131 0
DWIDTH 30 0
BBX 19 3 6 15
BITMAP
FFFFE0
FFFFE0
FFFFE0
ENDCHAR

STARTCHAR degree
ENCODING 176
SWIDTH 1131 0
DWIDTH 30 0
BBX 18 10 4 5
BITMAP
1FFC00
7FFF00
FFFFC0
FC0FC0
FC0FC0
FC0FC0
FC0FC0
FFFFC0
7FFF00
1FFC00
ENDCHAR

STARTCHAR plusminus
ENCODING 177
SWIDTH 1131 0
DWIDTH 30 0
BBX 26 15 2 0
BITMAP
007F8000
007F8000
007F8000
007F8000
FFFFFFC0
FFFFFFC0
FFFFFFC0
007F8000
007F8000
007F8000
007F8000
00000000
FFFFFFC0
FFFFFFC0
FFFFFFC0
ENDCHAR

STARTCHAR twosuperior
ENCODING 178
SWIDTH 1131 0
DWIDTH 30 0
BBX 17 10 7 5
BITMAP
1FFE00
FFFF80
FFFF80
007F80
03FE00
0FE000
7E0000
FFFF80
FFFF80
FFFF80
ENDCHAR

STARTCHAR threesuperior
ENCODING 179
SWIDTH 1131 0
DWIDTH 30 0
BBX 17 10 7 5
BITMAP
1FFE00
FFFF80
FFFF80
007F00
07F800
007F00
007F80
FFFF80
FFFF00
1FFE00
ENDCHAR

STARTCHAR acute
ENCODING 180
SWIDTH 1131 0
DWIDTH 30 0
BBX 16 4 7 15
BITMAP
01FF
07FE
1FE0
FF80
ENDCHAR

STARTCHAR mu
ENCODING 181
SWIDTH 1131 0
DWIDTH 30 0
BBX 28 17 1 -5
BITMAP
1FE01FF0
1FE01FF0
1FE01FE0
1FE01FE0
1FC03FE0
1FC03FE0
1FC03F80
1FC03F80
7FC0FF80
7FFFFFF0
7FFFFFF0
7FFF1FF0
7F800000
7F800000
7F800000
FF800000
FF800000
ENDCHAR

STARTCHAR paragraph
ENCODING 182
SWIDTH 1131 0
DWIDTH 30 0
BBX 28 18 1 -3
BITMAP
0FFFFFF0
7FFFFFF0
7FFFFFF0
FFFF9F80
FFFF9F80
FFFF9F80
FFFF9F80
7FFF9F80
0FFF9F80
001F9F80
001F9F80
001F9F80
001F9F80
001F9F80
001F9F80
007F9FF0
007F9FF0
007F9FF0
ENDCHAR

STARTCHAR periodcentered
ENCODING 183
SWIDTH 1131 0
DWIDTH 30 0
BBX 10 6 10 4
BITMAP
3F00
7F80
FFC0
FFC0
7F80
3F00
ENDCHAR

STARTCHAR cedilla
ENCODING 184
SWIDTH 1131 0
DWIDTH 30 0
BBX 13 5 11 -5
BITMAP
7C00
7FF0
01F8
01F8
FFE0
ENDCHAR

STARTCHAR onesuperior
ENCODING 185
SWIDTH 1131 0
DWIDTH 30 0
BBX 17 10 6 5
BITMAP
03F000
3FF000
FFF000
F3F000
03F000
03F000
03F000
7FFF80
7FFF80
7FFF80
ENDCHAR

STARTCHAR ordmasculine
ENCODING 186
SWIDTH 1131 0
DWIDTH 30 0
BBX 20 15 5 0
BITMAP
1FFF80
3FFFC0
7FFFE0
FE07F0
FE07F0
FE07F0
FE07F0
FE07F0
7FFFE0
3FFFC0
1FFF80
000000
FFFFF0
FFFFF0
FFFFF0
ENDCHAR

STARTCHAR guillemotright
ENCODING 187
SWIDTH 1131 0
DWIDTH 30 0
BBX 19 14 6 0
BITMAP
C01800
F01C00
F81F00
FC1F80
7E0FC0
3F07E0
0F03E0
0F03E0
3F07E0
7E0FC0
FC1F80
F81F00
F01C00
C01800
ENDCHAR

STARTCHAR onequarter
ENCODING 188
SWIDTH 1131 0
DWIDTH 30 0
BBX 29 23 0 -5
BITMAP
0FC00000
7FC00000
FFC00000
CFC00000
0FC00000
0FC00000
0FC00000
FFF80000
FFF80000
FFF81FC0
00001FC0
0007FFC0
01FFE000
01FFE000
7FF80FC0
7E003FC0
7E003FC0
0000EFC0
000FCFC0
000FFFF8
000FFFF8
00000FC0
00000FC0
ENDCHAR

STARTCHAR onehalf
ENCODING 189
SWIDTH 1131 0
DWIDTH 30 0
BBX 29 23 0 -5
BITMAP
3FC00000
7FC00000
CFC00000
0FC00000
0FC00000
0FC00000
0FC00000
FFF80000
FFF80000
FFF81F80
00001F80
0007FF80
01FFE000
01FFE000
7FF87FC0
7E00FFF0
7E0003F0
000001F0
00000FF0
00003F80
0003FE00
0003FFF8
0003FFF8
ENDCHAR

STARTCHAR threequarters
ENCODING 190
SWIDTH 1131 0
DWIDTH 30 0
BBX 29 23 0 -5
BITMAP
3FE00000
FFF00000
FFFC0000
00FC0000
07F00000
07F00000
00FC0000
FFFC0000
FFFC0000
3FE01F80
00001F80
0007FF80
01FFE000
01FFE000
7FF80FC0
7E003FC0
7E003FC0
0000EFC0
000FCFC0
000FFFF8
000FFFF8
00000FC0
00000FC0
ENDCHAR

STARTCHAR questiondown
ENCODING 191
SWIDTH 1131 0
DWIDTH 30 0
BBX 22 15 4 -3
BITMAP
00FF00
03FFE0
03FFE0
00FF00
000000
000000
00FF00
00FF00
0FFF00
3FFC00
FF0000
FF03FC
FF87FC
7FFFF8
1FFFE0
ENDCHAR

STARTCHAR Agrave
ENCODING 192
SWIDTH 1131 0
DWIDTH 30 0
BBX 28 20 1 0
BITMAP
03FE0000
007F0000
001F8000
00000000
00000000
003FE000
007FF800
007FF800
01FFFC00
01F9FC00
03F1FC00
03F0FE00
07E0FE00
07FFFF00
0FFFFF00
0F807F80
1F803F80
FFE0FFF0
FFE0FFF0
FFE0FFF0
ENDCHAR

STARTCHAR Aacute
ENCODING 193
SWIDTH 1131 0
DWIDTH 30 0
BBX 28 20 1 0
BITMAP
0007F800
001FC000
003F0000
00000000
00000000
003FE000
007FF800
007FF800
01FFFC00
01F9FC00
03F1FC00
03F0FE00
07E0FE00
07FFFF00
0FFFFF00
0F807F80
1F803F80
FFE0FFF0
FFE0FFF0
FFE0FFF0
ENDCHAR

STARTCHAR Acircumflex
ENCODING 194
SWIDTH 1131 0
DWIDTH 30 0
BBX 28 20 1 0
BITMAP
007FE000
03F9FC00
0FE07F00
00000000
00000000
003FE000
007FF800
007FF800
01FFFC00
01F9FC00
03F1FC00
03F0FE00
07E0FE00
07FFFF00
0FFFFF00
0F807F80
1F803F80
FFE0FFF0
FFE0FFF0
FFE0FFF0
ENDCHAR

STARTCHAR Atilde
ENCODING 195
SWIDTH 1131 0
DWIDTH 30 0
BBX 28 20 1 0
BITMAP
01FE01E0
07FFC7E0
1F9FFF00
1C01FC00
00000000
003FE000
007FF800
007FF800
01FFFC00
01F9FC00
03F1FC00
03F0FE00
07E0FE00
07FFFF00
0FFFFF00
0F807F80
1F803F80
FFE0FFF0
FFE0FFF0
FFE0FFF0
ENDCHAR

STARTCHAR Adieresis
ENCODING 196
SWIDTH 1131 0
DWIDTH 30 0
BBX 28 20 1 0
BITMAP
0FE07F00
1FF0FF80
0FE07F00
00000000
003FE000
003FE000
007FF800
007FF800
01FFFC00
01F9FC00
03F1FC00
03F0FE00
07E0FE00
07FFFF00
0FFFFF00
0F807F80
1F803F80
FFE0FFF0
FFE0FFF0
FFE0FFF0
ENDCHAR

STARTCHAR Aring
ENCODING 197
SWIDTH 1131 0
DWIDTH 30 0
BBX 28 20 1 0
BITMAP
007FE000
03E07C00
03E07C00
007FE000
00000000
003FE000
007FF800
007FF800
01FFFC00
01F9FC00
03F1FC00
03F0FE00
07E0FE00
07FFFF00
0FFFFF00
0F807F80
1F803F80
FFE0FFF0
FFE0FFF0
FFE0FFF0
ENDCHAR

STARTCHAR AE
ENCODING 198
SWIDTH 1131 0
DWIDTH 30 0
BBX 28 15 1 0
BITMAP
03FFFFF0
07FFFFF0
07FFFFF0
0F9FE1F0
0F9FE000
1F9FE380
1E1FFF80
1E1FFF80
7C1FE380
7FFFE000
7FFFE000
FC1FE1F0
FC1FFFF0
FC1FFFF0
FC1FFFF0
ENDCHAR

STARTCHAR Ccedilla
ENCODING 199
SWIDTH 1131 0
DWIDTH 30 0
BBX 28 20 1 -5
BITMAP
01FFE1F0
1FFFFFF0
1FFFFFF0
7FC01FF0
FF8001F0
FF800000
FF800000
FF800000
FF800000
FF800000
FF800000
7FC001F0
1FFFFFF0
1FFFFFF0
01FFFE00
001F0000
001FF800
00007C00
00007C00
001FF800
ENDCHAR

STARTCHAR Egrave
ENCODING 200
SWIDTH 1131 0
DWIDTH 30 0
BBX 28 20 1 0
BITMAP
01FF0000
003F8000
000FC000
00000000
00000000
FFFFFFF0
FFFFFFF0
FFFFFFF0
1FE001F0
1FE001F0
1FE1E000
1FFFE000
1FFFE000
1FE1E000
1FE001F0
1FE001F0
1FE001F0
FFFFFFF0
FFFFFFF0
FFFFFFF0
ENDCHAR

STARTCHAR Eacute
ENCODING 201
SWIDTH 1131 0
DWIDTH 30 0
BBX 28 20 1 0
BITMAP
0001FC00
000FE000
001F8000
00000000
00000000
FFFFFFF0
FFFFFFF0
FFFFFFF0
1FE001F0
1FE001F0
1FE1E000
1FFFE000
1FFFE000
1FE1E000
1FE001F0
1FE001F0
1FE001F0
FFFFFFF0
FFFFFFF0
FFFFFFF0
ENDCHAR

STARTCHAR Ecircumflex
ENCODING 202
SWIDTH 1131 0
DWIDTH 30 0
BBX 28 20 1 0
BITMAP
003FF800
01FEFE00
07F03F80
00000000
00000000
FFFFFFF0
FFFFFFF0
FFFFFFF0
1FE001F0
1FE001F0
1FE1E000
1FFFE000
1FFFE000
1FE1E000
1FE001F0
1FE001F0
1FE001F0
FFFFFFF0
FFFFFFF0
FFFFFFF0
ENDCHAR

STARTCHAR Edieresis
ENCODING 203
SWIDTH 1131 0
DWIDTH 30 0
BBX 28 20 1 0
BITMAP
0FE07F00
1FF0FF80
0FE07F00
00000000
00000000
FFFFFFF0
FFFFFFF0
FFFFFFF0
1FE001F0
1FE001F0
1FE1E000
1FFFE000
1FFFE000
1FE1E000
1FE001F0
1FE001F0
1FE001F0
FFFFFFF0
FFFFFFF0
FFFFFFF0
ENDCHAR

STARTCHAR Igrave
ENCODING 204
SWIDTH 1131 0
DWIDTH 30 0
BBX 26 20 2 0
BITMAP
07FC0000
00FE0000
003F0000
00000000
00000000
FFFFFFC0
FFFFFFC0
FFFFFFC0
007F8000
007F8000
007F8000
007F8000
007F8000
007F8000
007F8000
007F8000
007F8000
FFFFFFC0
FFFFFFC0
FFFFFFC0
ENDCHAR

STARTCHAR Iacute
ENCODING 205
SWIDTH 1131 0
DWIDTH 30 0
BBX 26 20 2 0
BITMAP
0003F800
001FC000
003F0000
00000000
00000000
FFFFFFC0
FFFFFFC0
FFFFFFC0
007F8000
007F8000
007F8000
007F8000
007F8000
007F8000
007F8000
007F8000
007F8000
FFFFFFC0
FFFFFFC0
FFFFFFC0
ENDCHAR

STARTCHAR Icircumflex
ENCODING 206
SWIDTH 1131 0
DWIDTH 30 0
BBX 26 20 2 0
BITMAP
00FFC000
07F3F800
1FC0FE00
00000000
00000000
FFFFFFC0
FFFFFFC0
FFFFFFC0
007F8000
007F8000
007F8000
007F8000
007F8000
007F8000
007F8000
007F8000
007F8000
FFFFFFC0
FFFFFFC0
FFFFFFC0
ENDCHAR

STARTCHAR Idieresis
ENCODING 207
SWIDTH 1131 0
DWIDTH 30 0
BBX 26 20 2 0
BITMAP
1FC0FE00
3FE1FF00
1FC0FE00
00000000
00000000
FFFFFFC0
FFFFFFC0
FFFFFFC0
007F8000
007F8000
007F8000
007F8000
007F8000
007F8000
007F8000
007F8000
007F8000
FFFFFFC0
FFFFFFC0
FFFFFFC0
ENDCHAR

STARTCHAR Eth
ENCODING 208
SWIDTH 1131 0
DWIDTH 30 0
BBX 28 15 1 0
BITMAP
FFFFFE00
FFFFFF80
FFFFFF80
1FE03FE0
1FE01FF0
1FE01FF0
FFFF9FF0
FFFF9FF0
1FE01FF0
1FE01FF0
1FE01FF0
1FE03FE0
FFFFFF80
FFFFFF80
FFFFFE00
ENDCHAR

STARTCHAR Ntilde
ENCODING 209
SWIDTH 1131 0
DWIDTH 30 0
BBX 28 20 1 0
BITMAP
01FE01E0
07FFC7E0
1F9FFF00
1C01FC00
00000000
FFE07FF0
FFE07FF0
FFE07FF0
1FF87F80
1FFE7F80
1FFF7F80
1FFF7F80
1FE7FF80
1FE1FF80
1FE0FF80
1FE0FF80
1FE07F80
FFE07F80
FFE07F80
FFE07F80
ENDCHAR

STARTCHAR Ograve
ENCODING 210
SWIDTH 1131 0
DWIDTH 30 0
BBX 28 20 1 0
BITMAP
07F80000
01FE0000
003F0000
00000000
00000000
01FFFC00
1FFFFF80
1FFFFF80
7FC03FE0
FF801FF0
FF801FF0
FF801FF0
FF801FF0
FF801FF0
FF801FF0
FF801FF0
7FC03FE0
1FFFFF80
1FFFFF80
01FFFC00
ENDCHAR

STARTCHAR Oacute
ENCODING 211
SWIDTH 1131 0
DWIDTH 30 0
BBX 28 20 1 0
BITMAP
0001FC00
000FE000
001F8000
00000000
00000000
01FFFC00
1FFFFF80
1FFFFF80
7FC03FE0
FF801FF0
FF801FF0
FF801FF0
FF801FF0
FF801FF0
FF801FF0
FF801FF0
7FC03FE0
1FFFFF80
1FFFFF80
01FFFC00
ENDCHAR

STARTCHAR Ocircumflex
ENCODING 212
SWIDTH 1131 0
DWIDTH 30 0
BBX 28 20 1 0
BITMAP
007FE000
03F9FC00
0FE07F80
00000000
00000000
01FFFC00
1FFFFF80
1FFFFF80
7FC03FE0
FF801FF0
FF801FF0
FF801FF0
FF801FF0
FF801FF0
FF801FF0
FF801FF0
7FC03FE0
1FFFFF80
1FFFFF80
01FFFC00
ENDCHAR

STARTCHAR Otilde
ENCODING 213
SWIDTH 1131 0
DWIDTH 30 0
BBX 28 20 1 0
BITMAP
01FE01E0
07FFC7E0
1F9FFF00
1C01FC00
00000000
01FFFC00
1FFFFF80
1FFFFF80
7FC03FE0
FF801FF0
FF801FF0
FF801FF0
FF801FF0
FF801FF0
FF801FF0
FF801FF0
7FC03FE0
1FFFFF80
1FFFFF80
01FFFC00
ENDCHAR

STARTCHAR Odieresis
ENCODING 214
SWIDTH 1131 0
DWIDTH 30 0
BBX 28 20 1 0
BITMAP
0FE07F00
1FF0FF80
0FE07F00
00000000
00000000
01FFFC00
1FFFFF80
1FFFFF80
7FC03FE0
FF801FF0
FF801FF0
FF801FF0
FF801FF0
FF801FF0
FF801FF0
FF801FF0
7FC03FE0
1FFFFF80
1FFFFF80
01FFFC00
ENDCHAR

STARTCHAR multiply
ENCODING 215
SWIDTH 1131 0
DWIDTH 30 0
BBX 20 13 5 0
BITMAP
3801C0
7C03E0
FE07F0
7F0FE0
3F9FC0
1FFF80
07FE00
07FF80
1FFFC0
3F8FE0
7F07F0
3E03E0
1C01C0
ENDCHAR

STARTCHAR Oslash
ENCODING 216
SWIDTH 1131 0
DWIDTH 30 0
BBX 28 17 1 -1
BITMAP
000001F0
01FFFDF0
1FFFFF80
1FFFFF80
7FC07FE0
FF80FFF0
FF81FFF0
FF87DFF0
FF8F9FF0
FFBF1FF0
FFF81FF0
FFF01FF0
7FE03FE0
7FFFFF80
1FFFFF80
F9FFFC00
F8000000
ENDCHAR

STARTCHAR Ugrave
ENCODING 217
SWIDTH 1131 0
DWIDTH 30 0
BBX 28 20 1 0
BITMAP
03FE0000
007F0000
001FC000
00000000
00000000
FFE07FF0
FFE07FF0
FFE07FF0
1FE07F80
1FE07F80
1FE07F80
1FE07F80
1FE07F80
1FE07F80
1FE07F80
1FE07F80
1FE07F80
07FFFF00
07FFFF00
03FFFE00
ENDCHAR

STARTCHAR Uacute
ENCODING 218
SWIDTH 1131 0
DWIDTH 30 0
BBX 28 20 1 0
BITMAP
0001FC00
000FE000
001F8000
00000000
00000000
FFE07FF0
FFE07FF0
FFE07FF0
1FE07F80
1FE07F80
1FE07F80
1FE07F80
1FE07F80
1FE07F80
1FE07F80
1FE07F80
1FE07F80
07FFFF00
07FFFF00
03FFFE00
ENDCHAR

STARTCHAR Ucircumflex
ENCODING 219
SWIDTH 1131 0
DWIDTH 30 0
BBX 28 20 1 0
BITMAP
007FE000
03F9FC00
0FE07F80
00000000
00000000
FFE07FF0
FFE07FF0
FFE07FF0
1FE07F80
1FE07F80
1FE07F80
1FE07F80
1FE07F80
1FE07F80
1FE07F80
1FE07F80
1FE07F80
07FFFF00
07FFFF00
03FFFE00
ENDCHAR

STARTCHAR Udieresis
ENCODING 220
SWIDTH 1131 0
DWIDTH 30 0
BBX 28 20 1 0
BITMAP
0FE07F00
1FF0FF80
0FE07F00
00000000
00000000
FFE07FF0
FFE07FF0
FFE07FF0
1FE07F80
1FE07F80
1FE07F80
1FE07F80
1FE07F80
1FE07F80
1FE07F80
1FE07F80
1FE07F80
07FFFF00
07FFFF00
03FFFE00
ENDCHAR

STARTCHAR Yacute
ENCODING 221
SWIDTH 1131 0
DWIDTH 30 0
BBX 26 20 2 0
BITMAP
0003F800
001FC000
003F0000
00000000
00000000
FFC0FFC0
FFC0FFC0
FFC0FFC0
0FF1FE00
07F1FC00
03FFF800
03FFF800
00FFC000
007F8000
007F8000
007F8000
007F8000
0FFFFE00
0FFFFE00
0FFFFE00
ENDCHAR

STARTCHAR Thorn
ENCODING 222
SWIDTH 1131 0
DWIDTH 30 0
BBX 26 15 2 0
BITMAP
FFF00000
FFF00000
FFFFFE00
0FFFFF00
0FFFFFC0
0FF03FC0
0FF03FC0
0FF03FC0
0FFFFFC0
0FFFFF00
0FFFFE00
0FF00000
FFFE0000
FFFE0000
FFFE0000
ENDCHAR

STARTCHAR germandbls
ENCODING 223
SWIDTH 1131 0
DWIDTH 30 0
BBX 28 17 1 0
BITMAP
01FFFE00
07FFFF00
0FFFFF80
0FE03F80
1FE03F80
1FE03F80
1FE1FF00
1FE1FC00
1FE1FF80
1FE01FE0
1FE01FF0
1FE01FF0
1FE01FF0
1FE01FF0
FFE1FFE0
FFE1FFE0
FFE1FF00
ENDCHAR

STARTCHAR agrave
ENCODING 224
SWIDTH 1131 0
DWIDTH 30 0
BBX 28 18 1 0
BITMAP
01FF0000
003F8000
000FC000
00000000
00000000
00000000
0FFFFF00
0FFFFF80
00007F80
00007F80
07FFFF80
7FFFFF80
FF807F80
FF807F80
FF80FF80
7FFFFFF0
7FFFFFF0
1FFE7FF0
ENDCHAR

STARTCHAR aacute
ENCODING 225
SWIDTH 1131 0
DWIDTH 30 0
BBX 28 18 1 0
BITMAP
0001FC00
000FE000
001F8000
00000000
00000000
00000000
07FFFF00
07FFFF80
00007F80
00007F80
07FFFF80
7FFFFF80
FF807F80
FF807F80
FF80FF80
7FFFFFF0
7FFFFFF0
1FFE7FF0
ENDCHAR

STARTCHAR acircumflex
ENCODING 226
SWIDTH 1131 0
DWIDTH 30 0
BBX 28 18 1 0
BITMAP
003FF800
01FEFE00
07F03F80
00000000
00000000
00000000
0FFFFF00
0FFFFF80
00007F80
00007F80
07FFFF80
7FFFFF80
FF807F80
FF807F80
FF80FF80
7FFFFFF0
7FFFFFF0
1FFE7FF0
ENDCHAR

STARTCHAR atilde
ENCODING 227
SWIDTH 1131 0
DWIDTH 30 0
BBX 28 19 1 0
BITMAP
007F00F0
03FFE3F0
0FCFFF80
0E00FE00
00000000
00000000
00000000
0FFFFF00
0FFFFF80
00007F80
00007F80
07FFFF80
7FFFFF80
FF807F80
FF807F80
FF80FF80
7FFFFFF0
7FFFFFF0
1FFE7FF0
ENDCHAR

STARTCHAR adieresis
ENCODING 228
SWIDTH 1131 0
DWIDTH 30 0
BBX 28 18 1 0
BITMAP
0FE07F00
1FF0FF80
0FE07F00
00000000
00000000
00000000
0FFFFF00
0FFFFF80
00007F80
00007F80
07FFFF80
7FFFFF80
FF807F80
FF807F80
FF80FF80
7FFFFFF0
7FFFFFF0
1FFE7FF0
ENDCHAR

STARTCHAR aring
ENCODING 229
SWIDTH 1131 0
DWIDTH 30 0
BBX 28 20 1 0
BITMAP
003FF800
01FFFE00
07F03F80
07F03F80
07F03F80
01FFFE00
003FF800
00000000
0FFFFF00
0FFFFF80
00007F80
00007F80
07FFFF80
7FFFFF80
FF807F80
FF807F80
FF80FF80
7FFFFFF0
7FFF7FF0
1FFE7FF0
ENDCHAR

STARTCHAR ae
ENCODING 230
SWIDTH 1131 0
DWIDTH 30 0
BBX 29 12 1 0
BITMAP
1FFE7FE0
1FFFFFF0
001F81F8
001F81F8
1FFFFFF8
FFFFFFF8
FC1F8000
FC1F8000
FC1FC0F0
FFFFFFF0
FFFFFFF0
1FE0FF80
ENDCHAR

STARTCHAR ccedilla
ENCODING 231
SWIDTH 1131 0
DWIDTH 30 0
BBX 28 17 1 -5
BITMAP
07FFE1F0
7FFFFFF0
7FC01FF0
7FC01FF0
FF8001F0
FF800000
FF800000
FF800000
7FC001F0
7FFFFFF0
7FFFFFF0
07FFFE00
001F0000
001FF800
00007E00
00007E00
001FF800
ENDCHAR

STARTCHAR egrave
ENCODING 232
SWIDTH 1131 0
DWIDTH 30 0
BBX 28 18 1 0
BITMAP
01FF0000
003F8000
000FC000
00000000
00000000
00000000
07FFFF00
7FFFFFE0
7F8003F0
7F8003F0
FFFFFFF0
FFFFFFF0
FF800000
FF800000
7FC001F0
7FFFFFF0
7FFFFFF0
07FFFF00
ENDCHAR

STARTCHAR eacute
ENCODING 233
SWIDTH 1131 0
DWIDTH 30 0
BBX 28 18 1 0
BITMAP
0000FE00
0007F800
000FC000
00000000
00000000
00000000
07FFFF00
7FFFFFE0
7F8003F0
7F8003F0
FFFFFFF0
FFFFFFF0
FF800000
FF800000
7FC001F0
7FFFFFF0
7FFFFFF0
07FFFF00
ENDCHAR

STARTCHAR ecircumflex
ENCODING 234
SWIDTH 1131 0
DWIDTH 30 0
BBX 28 18 1 0
BITMAP
007FE000
03F9FC00
0FE07F00
00000000
00000000
00000000
07FFFF00
7FFFFFE0
7F8003F0
7F8003F0
FFFFFFF0
FFFFFFF0
FF800000
FF800000
7FC001F0
7FFFFFF0
7FFFFFF0
07FFFF00
ENDCHAR

STARTCHAR edieresis
ENCODING 235
SWIDTH 1131 0
DWIDTH 30 0
BBX 28 18 1 0
BITMAP
07F03F80
0FF87FE0
07F03F80
00000000
00000000
00000000
07FFFF00
7FFFFFE0
7F8003F0
7F8003F0
FFFFFFF0
FFFFFFF0
FF800000
FF800000
7FC001F0
7FFFFFF0
7FFFFFF0
07FFFF00
ENDCHAR

STARTCHAR igrave
ENCODING 236
SWIDTH 1131 0
DWIDTH 30 0
BBX 26 18 2 0
BITMAP
03FC0000
007E0000
003F0000
00000000
00000000
00000000
0FFF8000
0FFF8000
007F8000
007F8000
007F8000
007F8000
007F8000
007F8000
007F8000
FFFFFFC0
FFFFFFC0
FFFFFFC0
ENDCHAR

STARTCHAR iacute
ENCODING 237
SWIDTH 1131 0
DWIDTH 30 0
BBX 26 18 2 0
BITMAP
000FF000
003F8000
007E0000
00000000
00000000
00000000
0FFF8000
0FFF8000
007F8000
007F8000
007F8000
007F8000
007F8000
007F8000
007F8000
FFFFFFC0
FFFFFFC0
FFFFFFC0
ENDCHAR

STARTCHAR icircumflex
ENCODING 238
SWIDTH 1131 0
DWIDTH 30 0
BBX 26 18 2 0
BITMAP
00FFC000
07F3F800
1FC0FE00
00000000
00000000
00000000
0FFF8000
0FFF8000
007F8000
007F8000
007F8000
007F8000
007F8000
007F8000
007F8000
FFFFFFC0
FFFFFFC0
FFFFFFC0
ENDCHAR

STARTCHAR idieresis
ENCODING 239
SWIDTH 1131 0
DWIDTH 30 0
BBX 26 18 2 0
BITMAP
1FC0FE00
3FE1FF00
1FC0FE00
00000000
00000000
00000000
0FFF8000
0FFF8000
007F8000
007F8000
007F8000
007F8000
007F8000
007F8000
007F8000
FFFFFFC0
FFFFFFC0
FFFFFFC0
ENDCHAR

STARTCHAR eth
ENCODING 240
SWIDTH 1131 0
DWIDTH 30 0
BBX 27 17 1 0
BITMAP
07F9F800
07F9F800
003FC000
03F7FC00
03F1FC00
0000FE00
07FFFF00
7FFFFF80
7FFFFF80
FF807FE0
FE003FE0
FE003FE0
FE003FE0
FF807F80
7FFFFF80
7FFFFF80
07FFFE00
ENDCHAR

STARTCHAR ntilde
ENCODING 241
SWIDTH 1131 0
DWIDTH 30 0
BBX 28 19 1 0
BITMAP
01FE01E0
07FFC7E0
1F9FFF00
1C01FC00
00000000
00000000
00000000
FFE1FF00
FFFFFF80
1FFE7F80
1FFE7F80
1FE07F80
1FE07F80
1FE07F80
1FE07F80
1FE07F80
FFE07FF0
FFE07FF0
FFE07FF0
ENDCHAR

STARTCHAR ograve
ENCODING 242
SWIDTH 1131 0
DWIDTH 30 0
BBX 28 18 1 0
BITMAP
007F0000
001FC000
0007E000
00000000
00000000
00000000
07FFFF00
7FFFFFE0
7FC03FE0
7FC03FE0
FF801FF0
FF801FF0
FF801FF0
FF801FF0
7FC03FE0
7FFFFFE0
7FFFFFE0
07FFFF00
ENDCHAR

STARTCHAR oacute
ENCODING 243
SWIDTH 1131 0
DWIDTH 30 0
BBX 28 18 1 0
BITMAP
0001FC00
000FE000
001F8000
00000000
00000000
00000000
07FFFF00
7FFFFFE0
7FC03FE0
7FC03FE0
FF801FF0
FF801FF0
FF801FF0
FF801FF0
7FC03FE0
7FFFFFE0
7FFFFFE0
07FFFF00
ENDCHAR

STARTCHAR ocircumflex
ENCODING 244
SWIDTH 1131 0
DWIDTH 30 0
BBX 28 18 1 0
BITMAP
007FE000
03F9FC00
0FE07F00
00000000
00000000
00000000
07FFFF00
7FFFFFE0
7FC03FE0
7FC03FE0
FF801FF0
FF801FF0
FF801FF0
FF801FF0
7FC03FE0
7FFFFFE0
7FFFFFE0
07FFFF00
ENDCHAR

STARTCHAR otilde
ENCODING 245
SWIDTH 1131 0
DWIDTH 30 0
BBX 28 19 1 0
BITMAP
01FE01E0
07FFC7E0
1F9FFF00
1C01FC00
00000000
00000000
00000000
07FFFF00
7FFFFFE0
7FC03FE0
7FC03FE0
FF801FF0
FF801FF0
FF801FF0
FF801FF0
7FC03FE0
7FFFFFE0
7FFFFFE0
07FFFF00
ENDCHAR

STARTCHAR odieresis
ENCODING 246
SWIDTH 1131 0
DWIDTH 30 0
BBX 28 18 1 0
BITMAP
0FE07F00
1FF0FF80
0FE07F00
00000000
00000000
00000000
07FFFF00
7FFFFFE0
7FC03FE0
7FC03FE0
FF801FF0
FF801FF0
FF801FF0
FF801FF0
7FC03FE0
7FFFFFE0
7FFFFFE0
07FFFF00
ENDCHAR

STARTCHAR divide
ENCODING 247
SWIDTH 1131 0
DWIDTH 30 0
BBX 26 15 2 0
BITMAP
003F0000
007F8000
007F8000
003F0000
00000000
00000000
FFFFFFC0
FFFFFFC0
FFFFFFC0
00000000
00000000
003F0000
007F8000
007F8000
003F0000
ENDCHAR

STARTCHAR oslash
ENCODING 248
SWIDTH 1131 0
DWIDTH 30 0
BBX 28 12 1 0
BITMAP
07FFFDF0
7FFFFF80
7FC07FE0
7FC07FE0
FF81FFF0
FF9F9FF0
FFFE1FF0
FFFE1FF0
7FE03FE0
1FFFFFE0
1FFFFFE0
FBFFFF00
ENDCHAR

STARTCHAR ugrave
ENCODING 249
SWIDTH 1131 0
DWIDTH 30 0
BBX 28 18 1 0
BITMAP
007E0000
001FC000
0007E000
00000000
00000000
00000000
FFE1FF80
FFE1FF80
1FE07F80
1FE07F80
1FE07F80
1FE07F80
1FE07F80
1FE07F80
1FE1FF80
1FFFFFF0
1FFFFFF0
03FE7FF0
ENDCHAR

STARTCHAR uacute
ENCODING 250
SWIDTH 1131 0
DWIDTH 30 0
BBX 28 18 1 0
BITMAP
0000FE00
0007F800
000FC000
00000000
00000000
00000000
FFE1FF80
FFE1FF80
1FE07F80
1FE07F80
1FE07F80
1FE07F80
1FE07F80
1FE07F80
1FE1FF80
1FFFFFF0
1FFFFFF0
03FE7FF0
ENDCHAR

STARTCHAR ucircumflex
ENCODING 251
SWIDTH 1131 0
DWIDTH 30 0
BBX 28 18 1 0
BITMAP
007FE000
03F9FC00
0FE07F00
00000000
00000000
00000000
FFE1FF80
FFE1FF80
1FE07F80
1FE07F80
1FE07F80
1FE07F80
1FE07F80
1FE07F80
1FE1FF80
1FFFFFF0
1FFFFFF0
03FE7FF0
ENDCHAR

STARTCHAR udieresis
ENCODING 252
SWIDTH 1131 0
DWIDTH 30 0
BBX 28 18 1 0
BITMAP
0FE07F00
1FF0FF80
0FE07F00
00000000
00000000
00000000
FFE1FF80
FFE1FF80
1FE07F80
1FE07F80
1FE07F80
1FE07F80
1FE07F80
1FE07F80
1FE1FF80
1FFFFFF0
1FFFFFF0
03FE7FF0
ENDCHAR

STARTCHAR yacute
ENCODING 253
SWIDTH 1131 0
DWIDTH 30 0
BBX 29 23 0 -5
BITMAP
00007E00
0003F000
000FC000
00000000
00000000
00000000
FFF03FF8
FFF03FF8
0FF01F80
07F83F00
03FC3E00
01FF7E00
00FFFC00
003FF000
001FF000
000FE000
000FC000
000FC000
001FC000
001F8000
003F8000
03FFF000
03FFF000
ENDCHAR

STARTCHAR thorn
ENCODING 254
SWIDTH 1131 0
DWIDTH 30 0
BBX 28 22 1 -5
BITMAP
FFE00000
FFE00000
1FE00000
1FE00000
1FE00000
1FE7FE00
1FFFFF80
1FFFFFE0
1FF03FE0
1FE01FF0
1FE01FF0
1FE01FF0
1FE01FF0
1FF03FE0
1FFFFFE0
1FFFFF80
1FE7FE00
1FE00000
1FE00000
1FE00000
FFFF0000
FFFF0000
ENDCHAR

STARTCHAR ydieresis
ENCODING 255
SWIDTH 1131 0
DWIDTH 30 0
BBX 29 23 0 -5
BITMAP
03F81FC0
07FC3FF0
03F81FC0
00000000
00000000
00000000
FFF03FF8
FFF03FF8
0FF01F80
07F83F00
03FC3E00
01FF7E00
00FFFC00
003FF000
001FF000
000FE000
000FC000
000FC000
001FC000
001F8000
003F8000
03FFF000
03FFF000
ENDCHAR
ENDFONT
